<?xml version="1.0" encoding="UTF-8" standalone="no"?>
<!DOCTYPE svg PUBLIC "-//W3C//DTD SVG 1.1//EN"
 "http://www.w3.org/Graphics/SVG/1.1/DTD/svg11.dtd">
<!-- Generated by graphviz version 12.1.1 (20240910.0053)
 -->
<!-- Title: INFRA Pages: 1 -->
<svg width="382pt" height="188pt"
 viewBox="0.00 0.00 381.81 188.00" xmlns="http://www.w3.org/2000/svg" xmlns:xlink="http://www.w3.org/1999/xlink">
<g id="graph0" class="graph" transform="scale(1 1) rotate(0) translate(4 184)">
<title>INFRA</title>
<polygon fill="white" stroke="none" points="-4,4 -4,-184 377.81,-184 377.81,4 -4,4"/>
<!-- Development Container -->
<g id="node1" class="node">
<title>Development Container</title>
<path fill="#e6e6e6" stroke="black" stroke-width="2" d="M254.89,-180C254.89,-180 115.81,-180 115.81,-180 109.81,-180 103.81,-174 103.81,-168 103.81,-168 103.81,-120 103.81,-120 103.81,-114 109.81,-108 115.81,-108 115.81,-108 254.89,-108 254.89,-108 260.89,-108 266.89,-114 266.89,-120 266.89,-120 266.89,-168 266.89,-168 266.89,-174 260.89,-180 254.89,-180"/>
<text text-anchor="middle" x="185.35" y="-148.2" font-family="Arial" font-size="14.00">Development Container</text>
<text text-anchor="middle" x="185.35" y="-131.4" font-family="Arial" font-size="14.00">(DevContainer)</text>
</g>
<!-- PostgreSQL Database -->
<g id="node2" class="node">
<title>PostgreSQL Database</title>
<path fill="#ffcfb3" stroke="black" stroke-width="2" d="M174.7,-65.45C174.7,-69.07 135.55,-72 87.35,-72 39.15,-72 0,-69.07 0,-65.45 0,-65.45 0,-6.55 0,-6.55 0,-2.93 39.15,0 87.35,0 135.55,0 174.7,-2.93 174.7,-6.55 174.7,-6.55 174.7,-65.45 174.7,-65.45"/>
<path fill="none" stroke="black" stroke-width="2" d="M174.7,-65.45C174.7,-61.84 135.55,-58.91 87.35,-58.91 39.15,-58.91 0,-61.84 0,-65.45"/>
<text text-anchor="middle" x="87.35" y="-40.2" font-family="Arial" font-size="14.00">PostgreSQL Database</text>
<text text-anchor="middle" x="87.35" y="-23.4" font-family="Arial" font-size="14.00">(AWS::RDS::DBInstance)</text>
</g>
<!-- Development Container&#45;&gt;PostgreSQL Database -->
<g id="edge1" class="edge">
<title>Development Container&#45;&gt;PostgreSQL Database</title>
<path fill="none" stroke="black" d="M152.72,-107.7C144.62,-98.94 135.85,-89.45 127.43,-80.35"/>
<polygon fill="black" stroke="black" points="130.23,-78.22 120.87,-73.25 125.09,-82.97 130.23,-78.22"/>
</g>
<!-- MongoDB Database -->
<g id="node3" class="node">
<title>MongoDB Database</title>
<path fill="#ffcfb3" stroke="black" stroke-width="2" d="M373.81,-65.45C373.81,-69.07 333.26,-72 283.35,-72 233.44,-72 192.9,-69.07 192.9,-65.45 192.9,-65.45 192.9,-6.55 192.9,-6.55 192.9,-2.93 233.44,0 283.35,0 333.26,0 373.81,-2.93 373.81,-6.55 373.81,-6.55 373.81,-65.45 373.81,-65.45"/>
<path fill="none" stroke="black" stroke-width="2" d="M373.81,-65.45C373.81,-61.84 333.26,-58.91 283.35,-58.91 233.44,-58.91 192.9,-61.84 192.9,-65.45"/>
<text text-anchor="middle" x="283.35" y="-40.2" font-family="Arial" font-size="14.00">MongoDB Database</text>
<text text-anchor="middle" x="283.35" y="-23.4" font-family="Arial" font-size="14.00">(AWS::DocDB::DBCluster)</text>
</g>
<!-- Development Container&#45;&gt;MongoDB Database -->
<g id="edge2" class="edge">
<title>Development Container&#45;&gt;MongoDB Database</title>
<path fill="none" stroke="black" d="M217.98,-107.7C226.08,-98.94 234.86,-89.45 243.27,-80.35"/>
<polygon fill="black" stroke="black" points="245.62,-82.97 249.83,-73.25 240.48,-78.22 245.62,-82.97"/>
</g>
</g>
</svg>
